<?xml version="1.0" standalone="no"?><svg xmlns="http://www.w3.org/2000/svg" viewBox="0 0 1440 320"><path fill="#000000" fill-opacity="1" d="M0,128L20,133.3C40,139,80,149,120,181.3C160,213,200,267,240,256C280,245,320,171,360,154.7C400,139,440,181,480,192C520,203,560,181,600,154.7C640,128,680,96,720,106.7C760,117,800,171,840,160C880,149,920,75,960,85.3C1000,96,1040,192,1080,234.7C1120,277,1160,267,1200,245.3C1240,224,1280,192,1320,149.3C1360,107,1400,53,1420,26.7L1440,0L1440,320L1420,320C1400,320,1360,320,1320,320C1280,320,1240,320,1200,320C1160,320,1120,320,1080,320C1040,320,1000,320,960,320C920,320,880,320,840,320C800,320,760,320,720,320C680,320,640,320,600,320C560,320,520,320,480,320C440,320,400,320,360,320C320,320,280,320,240,320C200,320,160,320,120,320C80,320,40,320,20,320L0,320Z"></path></svg>