<?xml version="1.0" standalone="no"?><svg xmlns="http://www.w3.org/2000/svg" viewBox="0 0 1440 320"><path fill="#000000" fill-opacity="1" d="M0,288L18.5,240C36.9,192,74,96,111,53.3C147.7,11,185,21,222,64C258.5,107,295,181,332,181.3C369.2,181,406,107,443,101.3C480,96,517,160,554,186.7C590.8,213,628,203,665,208C701.5,213,738,235,775,218.7C812.3,203,849,149,886,117.3C923.1,85,960,75,997,96C1033.8,117,1071,171,1108,192C1144.6,213,1182,203,1218,202.7C1255.4,203,1292,213,1329,186.7C1366.2,160,1403,96,1422,64L1440,32L1440,320L1421.5,320C1403.1,320,1366,320,1329,320C1292.3,320,1255,320,1218,320C1181.5,320,1145,320,1108,320C1070.8,320,1034,320,997,320C960,320,923,320,886,320C849.2,320,812,320,775,320C738.5,320,702,320,665,320C627.7,320,591,320,554,320C516.9,320,480,320,443,320C406.2,320,369,320,332,320C295.4,320,258,320,222,320C184.6,320,148,320,111,320C73.8,320,37,320,18,320L0,320Z"></path></svg>