<?xml version="1.0" standalone="no"?><svg xmlns="http://www.w3.org/2000/svg" viewBox="0 0 1440 320"><path fill="#000000" fill-opacity="1" d="M0,320L6.5,314.7C13,309,26,299,39,277.3C51.9,256,65,224,78,192C90.8,160,104,128,117,117.3C129.7,107,143,117,156,112C168.6,107,182,85,195,69.3C207.6,53,221,43,234,37.3C246.5,32,259,32,272,69.3C285.4,107,298,181,311,192C324.3,203,337,149,350,122.7C363.2,96,376,96,389,128C402.2,160,415,224,428,256C441.1,288,454,288,467,240C480,192,493,96,506,48C518.9,0,532,0,545,5.3C557.8,11,571,21,584,32C596.8,43,610,53,623,96C635.7,139,649,213,662,234.7C674.6,256,688,224,701,208C713.5,192,726,192,739,186.7C752.4,181,765,171,778,149.3C791.4,128,804,96,817,122.7C830.3,149,843,235,856,250.7C869.2,267,882,213,895,192C908.1,171,921,181,934,176C947,171,960,149,973,154.7C985.9,160,999,192,1012,213.3C1024.9,235,1038,245,1051,229.3C1063.8,213,1077,171,1090,176C1102.7,181,1116,235,1129,224C1141.6,213,1155,139,1168,144C1180.5,149,1194,235,1206,234.7C1219.5,235,1232,149,1245,128C1258.4,107,1271,149,1284,138.7C1297.3,128,1310,64,1323,53.3C1336.2,43,1349,85,1362,90.7C1375.1,96,1388,64,1401,85.3C1414.1,107,1427,181,1434,218.7L1440,256L1440,320L1433.5,320C1427,320,1414,320,1401,320C1388.1,320,1375,320,1362,320C1349.2,320,1336,320,1323,320C1310.3,320,1297,320,1284,320C1271.4,320,1258,320,1245,320C1232.4,320,1219,320,1206,320C1193.5,320,1181,320,1168,320C1154.6,320,1142,320,1129,320C1115.7,320,1103,320,1090,320C1076.8,320,1064,320,1051,320C1037.8,320,1025,320,1012,320C998.9,320,986,320,973,320C960,320,947,320,934,320C921.1,320,908,320,895,320C882.2,320,869,320,856,320C843.2,320,830,320,817,320C804.3,320,791,320,778,320C765.4,320,752,320,739,320C726.5,320,714,320,701,320C687.6,320,675,320,662,320C648.6,320,636,320,623,320C609.7,320,597,320,584,320C570.8,320,558,320,545,320C531.9,320,519,320,506,320C493,320,480,320,467,320C454.1,320,441,320,428,320C415.1,320,402,320,389,320C376.2,320,363,320,350,320C337.3,320,324,320,311,320C298.4,320,285,320,272,320C259.5,320,246,320,234,320C220.5,320,208,320,195,320C181.6,320,169,320,156,320C142.7,320,130,320,117,320C103.8,320,91,320,78,320C64.9,320,52,320,39,320C25.9,320,13,320,6,320L0,320Z"></path></svg>